#!OML:ASF H:\Terrain\Patient Classification 1\Walking\liu\liu.ASF
:FULLY-SPECIFIED
:DEGREES
160
root 8.74558 16.7416 -9.1633 3.71541 2.90088 -3.48974
lowerback -4.75222 -1.96374 -0.0235809
upperback 0.288118 -2.74506 4.08026
thorax 3.16672 -1.40515 4.02714
lowerneck -20.297 -3.7255 -11.9418
upperneck 20.3174 -4.43062 12.1138
head 10.4053 -1.56503 5.71664
rclavicle -3.66509e-014 1.82882e-014
rhumerus -38.8166 8.55308 -84.4734
rradius 27.8541
rwrist -9.43621
rhand -27.2534 -24.2676
rfingers 7.12502
rthumb -0.664813 -54.2463
lclavicle -3.66509e-014 1.82882e-014
lhumerus -30.8539 -14.7985 95.8668
lradius 26.0942
lwrist 2.50156
lhand -15.2341 -28.1621
lfingers 7.12502
lthumb 10.939 1.53294
rfemur -19.9106 -0.112703 29.7371
rtibia 27.3282
rfoot -11.3475 0.990512
rtoes -8.07554
lfemur -7.82945 13.4083 -12.0299
ltibia 61.2773
lfoot 2.22034 9.7327
ltoes -9.90019
161
root 8.72692 16.7568 -9.028 3.88109 2.69163 -3.65756
lowerback -4.96386 -1.8162 0.000944582
upperback 0.386542 -2.5601 4.1417
thorax 3.37632 -1.31552 4.08506
lowerneck -20.2248 -3.83156 -12.2618
upperneck 20.1131 -4.56223 12.484
head 10.3554 -1.61029 5.88364
rclavicle 1.51325e-014 1.19271e-014
rhumerus -38.3557 9.10722 -84.6798
rradius 28.5087
rwrist -10.0041
rhand -27.7227 -24.0645
rfingers 7.12502
rthumb -1.11812 -54.0413
lclavicle 1.51325e-014 1.19271e-014
lhumerus -31.4455 -14.8644 95.9045
lradius 26.2997
lwrist 3.03133
lhand -13.7645 -27.0889
lfingers 7.12502
lthumb 12.3562 2.52599
rfemur -19.404 0.153768 30.0303
rtibia 27.0562
rfoot -11.4265 0.849622
rtoes -7.42424
lfemur -9.62723 13.5379 -11.9706
ltibia 62.9867
lfoot -0.600228 11.0416
ltoes -16.5574
162
root 8.71938 16.7778 -8.89021 4.02709 2.42635 -3.24466
lowerback -5.10225 -1.63884 -0.426006
upperback 0.486106 -2.29689 3.94662
thorax 3.54668 -1.19274 4.14028
lowerneck -20.2391 -3.98018 -12.2981
upperneck 19.7797 -4.78639 12.7082
head 10.2795 -1.68953 5.9272
rclavicle -1.13804e-014 -2.06736e-014
rhumerus -37.707 9.2281 -84.8248
rradius 28.9268
rwrist -10.4665
rhand -29.5574 -20.9503
rfingers 7.12502
rthumb -2.89001 -50.9104
lclavicle -1.13804e-014 -2.06736e-014
lhumerus -31.895 -14.805 95.6865
lradius 26.3342
lwrist 3.19473
lhand -12.3271 -26.9002
lfingers 7.12502
lthumb 13.7417 2.62607
rfemur -18.8758 0.177847 29.6557
rtibia 26.7034
rfoot -11.3185 1.08265
rtoes -8.05507
lfemur -11.205 13.6697 -12.6909
ltibia 64.3839
lfoot -1.56468 11.8511
ltoes -16.0356
163
root 8.70925 16.7933 -8.76208 4.11573 2.37614 -2.80102
lowerback -4.88896 -1.63046 -1.05162
upperback 0.391707 -2.23986 3.87588
thorax 3.34587 -1.17246 4.43181
lowerneck -20.0811 -3.91991 -12.086
upperneck 19.601 -4.74068 12.5854
head 10.1704 -1.67012 5.84276
rclavicle 4.72114e-015 9.54166e-015
rhumerus -37.2632 9.77389 -84.9916
rradius 29.2399
rwrist -10.9933
rhand -31.2431 -17.6057
rfingers 7.12502
rthumb -4.51786 -47.5375
lclavicle 4.72114e-015 9.54166e-015
lhumerus -32.7206 -14.3484 95.633
lradius 26.2895
lwrist 2.67315
lhand -12.9092 -28.2661
lfingers 7.12502
lthumb 13.1808 1.29725
rfemur -18.3525 0.119823 29.2737
rtibia 26.2762
rfoot -11.2863 1.20765
rtoes -9.97552
lfemur -12.804 13.4765 -13.4367
ltibia 65.5774
lfoot -0.769375 12.4205
ltoes -4.78427
164
root 8.69236 16.8069 -8.63806 4.23892 2.0622 -2.84998
lowerback -4.72881 -1.42236 -1.16317
upperback 0.257104 -1.95208 3.94367
thorax 3.09771 -1.02646 4.59398
lowerneck -19.7247 -3.96129 -11.9689
upperneck 19.4444 -4.80295 12.3433
head 10.0471 -1.72722 5.71423
rclavicle -3.69243e-014 2.3059e-014
rhumerus -37.077 10.1406 -84.9388
rradius 29.8844
rwrist -11.6102
rhand -29.4667 -20.6078
rfingers 7.12502
rthumb -2.80242 -50.5692
lclavicle -3.69243e-014 2.3059e-014
lhumerus -33.7918 -14.515 95.9922
lradius 26.3877
lwrist 2.57148
lhand -9.18669 -24.4449
lfingers 7.12502
lthumb 16.7667 4.85114
rfemur -17.8284 0.477905 29.4368
rtibia 25.8749
rfoot -11.3346 1.19251
rtoes -11.3687
lfemur -14.4526 13.4328 -13.5599
ltibia 66.6055
lfoot -3.74072 12.5969
ltoes -9.73641
165
root 8.68255 16.8181 -8.50514 4.30725 1.53945 -2.96825
lowerback -4.79718 -1.06957 -0.986204
upperback 0.345786 -1.49147 3.87406
thorax 3.17968 -0.794827 4.45479
lowerneck -19.7441 -4.13012 -11.9428
upperneck 19.3569 -5.01558 12.2475
head 10.0466 -1.83317 5.63875
rclavicle -7.45443e-015 1.35174e-014
rhumerus -36.3907 10.0613 -84.8498
rradius 30.2357
rwrist -11.9593
rhand -27.2545 -23.6114
rfingers 7.12502
rthumb -0.665853 -53.5901
lclavicle -7.45443e-015 1.35174e-014
lhumerus -34.5122 -14.8985 96.152
lradius 26.3631
lwrist 2.38225
lhand -7.98286 -23.2745
lfingers 7.12502
lthumb 17.9253 5.91941
rfemur -17.1068 0.885477 29.6211
rtibia 25.4712
rfoot -11.5689 1.21589
rtoes -12.5506
lfemur -15.9216 13.6044 -13.6256
ltibia 67.4621
lfoot -5.26238 12.6537
ltoes -11.1325
166
root 8.68071 16.8221 -8.37255 4.3959 1.16999 -2.97279
lowerback -4.92997 -0.8234 -0.797197
upperback 0.44046 -1.17184 3.69638
thorax 3.31673 -0.63284 4.18488
lowerneck -19.7558 -4.18863 -12.1032
upperneck 19.3328 -5.12879 12.592
head 10.0717 -1.85914 5.77765
rclavicle -5.61567e-015 8.74653e-015
rhumerus -35.5605 10.0262 -84.9455
rradius 30.3214
rwrist -12.0833
rhand -28.8625 -21.8353
rfingers 7.12502
rthumb -2.21889 -51.8035
lclavicle -5.61567e-015 8.74653e-015
lhumerus -35.0952 -14.8907 95.8953
lradius 26.2083
lwrist 1.41112
lhand -7.82461 -23.6972
lfingers 7.12502
lthumb 18.0776 5.48274
rfemur -16.4658 0.945638 29.6579
rtibia 25.1263
rfoot -11.9305 1.35255
rtoes -13.4331
lfemur -17.3616 13.7906 -13.8758
ltibia 68.1155
lfoot -5.88317 12.7233
ltoes -11.1492
167
root 8.67662 16.8281 -8.23747 4.50383 0.781515 -3.07742
lowerback -5.04636 -0.582459 -0.565871
upperback 0.461897 -0.861708 3.57071
thorax 3.37381 -0.473347 3.94621
lowerneck -19.805 -4.25553 -12.1527
upperneck 19.3746 -5.28623 12.9186
head 10.1308 -1.89795 5.88711
rclavicle 6.13748e-015 8.74653e-015
rhumerus -35.2205 10.3794 -85.1357
rradius 30.8773
rwrist -12.5969
rhand -31.5179 -20.452
rfingers 7.12502
rthumb -4.78326 -50.378
lclavicle 6.13748e-015 8.74653e-015
lhumerus -35.9869 -15.2684 95.8215
lradius 26.432
lwrist 1.30298
lhand -7.71519 -24.037
lfingers 7.12502
lthumb 18.1829 5.13318
rfemur -15.9229 1.07502 29.8026
rtibia 24.9742
rfoot -12.3046 1.54862
rtoes -13.5336
lfemur -18.746 14.0377 -14.0188
ltibia 68.519
lfoot -6.30364 12.6783
ltoes -10.7067
168
root 8.67614 16.8473 -8.09132 4.50255 0.377617 -2.97845
lowerback -5.13541 -0.384937 -0.592876
upperback 0.542881 -0.596362 3.47604
thorax 3.48732 -0.342651 3.88422
lowerneck -20.0012 -4.32661 -12.126
upperneck 19.4613 -5.39965 12.9947
head 10.2172 -1.93334 5.89804
rclavicle 8.05078e-015 -3.97569e-014
rhumerus -34.8957 11.1842 -85.3639
rradius 31.5233
rwrist -13.3414
rhand -31.4094 -24.4048
rfingers 7.12502
rthumb -4.67842 -54.3332
lclavicle 8.05078e-015 -3.97569e-014
lhumerus -36.977 -15.7432 96.0417
lradius 26.7993
lwrist 1.8376
lhand -8.12165 -24.53
lfingers 7.12502
lthumb 17.7918 4.67611
rfemur -15.2947 1.27476 29.7042
rtibia 25.0372
rfoot -12.8133 1.67121
rtoes -13.5352
lfemur -19.8643 14.1085 -14.4111
ltibia 68.6451
lfoot -6.30579 12.453
ltoes -8.40192
169
root 8.67614 16.87 -7.95398 4.55075 0.128108 -2.68466
lowerback -5.13441 -0.269106 -0.892053
upperback 0.568754 -0.421832 3.42983
thorax 3.50284 -0.261468 4.02013
lowerneck -19.9162 -4.3974 -12.4324
upperneck 19.4931 -5.44907 13.1294
head 10.2335 -1.96749 5.99562
rclavicle -6.80837e-015 3.97569e-015
rhumerus -34.2989 11.7631 -85.3465
rradius 31.8665
rwrist -13.6656
rhand -30.3542 -27.319
rfingers 7.12502
rthumb -3.65947 -57.2673
lclavicle -6.80837e-015 3.97569e-015
lhumerus -37.8629 -15.9748 96.378
lradius 26.9844
lwrist 2.13633
lhand -8.7969 -24.9078
lfingers 7.12502
lthumb 17.1419 4.356
rfemur -14.8718 1.38892 29.399
rtibia 25.1887
rfoot -13.3302 1.68094
rtoes -13.5803
lfemur -21.1006 13.9597 -15.0378
ltibia 68.6358
lfoot -6.3985 11.9517
ltoes -5.81439
